<svg xmlns="http://www.w3.org/2000/svg" viewBox="0 0 512 512">
  <defs>
    <radialGradient id="bg" cx="50%" cy="42%" r="75%">
      <stop offset="0%" stop-color="#0a1030"/>
      <stop offset="55%" stop-color="#020616"/>
      <stop offset="100%" stop-color="#000008"/>
    </radialGradient>
    <filter id="glow" x="-30%" y="-30%" width="160%" height="160%">
      <feGaussianBlur stdDeviation="14"/>
    </filter>
  </defs>
  <rect width="512" height="512" rx="96" fill="url(#bg)"/>
  <g fill="#4a9eff" opacity="0.55" filter="url(#glow)">
      <rect x="144" y="128" width="32" height="32"/>
      <rect x="336" y="128" width="32" height="32"/>
      <rect x="176" y="160" width="32" height="32"/>
      <rect x="304" y="160" width="32" height="32"/>
      <rect x="144" y="192" width="32" height="32"/>
      <rect x="176" y="192" width="32" height="32"/>
      <rect x="208" y="192" width="32" height="32"/>
      <rect x="240" y="192" width="32" height="32"/>
      <rect x="272" y="192" width="32" height="32"/>
      <rect x="304" y="192" width="32" height="32"/>
      <rect x="336" y="192" width="32" height="32"/>
      <rect x="112" y="224" width="32" height="32"/>
      <rect x="144" y="224" width="32" height="32"/>
      <rect x="208" y="224" width="32" height="32"/>
      <rect x="240" y="224" width="32" height="32"/>
      <rect x="272" y="224" width="32" height="32"/>
      <rect x="336" y="224" width="32" height="32"/>
      <rect x="368" y="224" width="32" height="32"/>
      <rect x="80" y="256" width="32" height="32"/>
      <rect x="112" y="256" width="32" height="32"/>
      <rect x="144" y="256" width="32" height="32"/>
      <rect x="176" y="256" width="32" height="32"/>
      <rect x="208" y="256" width="32" height="32"/>
      <rect x="240" y="256" width="32" height="32"/>
      <rect x="272" y="256" width="32" height="32"/>
      <rect x="304" y="256" width="32" height="32"/>
      <rect x="336" y="256" width="32" height="32"/>
      <rect x="368" y="256" width="32" height="32"/>
      <rect x="400" y="256" width="32" height="32"/>
      <rect x="80" y="288" width="32" height="32"/>
      <rect x="144" y="288" width="32" height="32"/>
      <rect x="176" y="288" width="32" height="32"/>
      <rect x="208" y="288" width="32" height="32"/>
      <rect x="240" y="288" width="32" height="32"/>
      <rect x="272" y="288" width="32" height="32"/>
      <rect x="304" y="288" width="32" height="32"/>
      <rect x="336" y="288" width="32" height="32"/>
      <rect x="400" y="288" width="32" height="32"/>
      <rect x="80" y="320" width="32" height="32"/>
      <rect x="144" y="320" width="32" height="32"/>
      <rect x="336" y="320" width="32" height="32"/>
      <rect x="400" y="320" width="32" height="32"/>
      <rect x="176" y="352" width="32" height="32"/>
      <rect x="208" y="352" width="32" height="32"/>
      <rect x="272" y="352" width="32" height="32"/>
      <rect x="304" y="352" width="32" height="32"/>
  </g>
  <g fill="#7ec3ff">
      <rect x="144" y="128" width="32" height="32"/>
      <rect x="336" y="128" width="32" height="32"/>
      <rect x="176" y="160" width="32" height="32"/>
      <rect x="304" y="160" width="32" height="32"/>
      <rect x="144" y="192" width="32" height="32"/>
      <rect x="176" y="192" width="32" height="32"/>
      <rect x="208" y="192" width="32" height="32"/>
      <rect x="240" y="192" width="32" height="32"/>
      <rect x="272" y="192" width="32" height="32"/>
      <rect x="304" y="192" width="32" height="32"/>
      <rect x="336" y="192" width="32" height="32"/>
      <rect x="112" y="224" width="32" height="32"/>
      <rect x="144" y="224" width="32" height="32"/>
      <rect x="208" y="224" width="32" height="32"/>
      <rect x="240" y="224" width="32" height="32"/>
      <rect x="272" y="224" width="32" height="32"/>
      <rect x="336" y="224" width="32" height="32"/>
      <rect x="368" y="224" width="32" height="32"/>
      <rect x="80" y="256" width="32" height="32"/>
      <rect x="112" y="256" width="32" height="32"/>
      <rect x="144" y="256" width="32" height="32"/>
      <rect x="176" y="256" width="32" height="32"/>
      <rect x="208" y="256" width="32" height="32"/>
      <rect x="240" y="256" width="32" height="32"/>
      <rect x="272" y="256" width="32" height="32"/>
      <rect x="304" y="256" width="32" height="32"/>
      <rect x="336" y="256" width="32" height="32"/>
      <rect x="368" y="256" width="32" height="32"/>
      <rect x="400" y="256" width="32" height="32"/>
      <rect x="80" y="288" width="32" height="32"/>
      <rect x="144" y="288" width="32" height="32"/>
      <rect x="176" y="288" width="32" height="32"/>
      <rect x="208" y="288" width="32" height="32"/>
      <rect x="240" y="288" width="32" height="32"/>
      <rect x="272" y="288" width="32" height="32"/>
      <rect x="304" y="288" width="32" height="32"/>
      <rect x="336" y="288" width="32" height="32"/>
      <rect x="400" y="288" width="32" height="32"/>
      <rect x="80" y="320" width="32" height="32"/>
      <rect x="144" y="320" width="32" height="32"/>
      <rect x="336" y="320" width="32" height="32"/>
      <rect x="400" y="320" width="32" height="32"/>
      <rect x="176" y="352" width="32" height="32"/>
      <rect x="208" y="352" width="32" height="32"/>
      <rect x="272" y="352" width="32" height="32"/>
      <rect x="304" y="352" width="32" height="32"/>
  </g>
</svg>
